<mxfile host="65bd71144e">
    <diagram name="Perfume_DB_ER_Enhanced" id="perfume_er_diagram_enhanced">
        <mxGraphModel dx="1700" dy="1000" grid="1" gridSize="10" guides="1" tooltips="1" connect="1" arrows="1" fold="1" page="1" pageScale="1" pageWidth="850" pageHeight="1100" math="0" shadow="0">
            <root>
                <mxCell id="0"/>
                <mxCell id="1" parent="0"/>
                <mxCell id="brands" value="Brands" style="swimlane;fontStyle=1;align=center;verticalAlign=top;childLayout=stackLayout;horizontal=1;startSize=26;horizontalStack=0;resizeParent=1;resizeParentMax=0;resizeLast=0;collapsible=1;marginBottom=0;" parent="1" vertex="1">
                    <mxGeometry x="20" y="80" width="150" height="96" as="geometry"/>
                </mxCell>
                <mxCell id="brands_attrs" value="+ ID (PK)&#10;+ name: VARCHAR&#10;+ description: TEXT&#10;+ country: VARCHAR" style="text;strokeColor=none;fillColor=none;align=left;verticalAlign=top;spacingLeft=4;spacingRight=4;overflow=hidden;rotatable=0;aspect=fixed;" parent="brands" vertex="1">
                    <mxGeometry y="26" width="150" height="70" as="geometry"/>
                </mxCell>
                <mxCell id="categories" value="Categories" style="swimlane;fontStyle=1;align=center;verticalAlign=top;childLayout=stackLayout;horizontal=1;startSize=26;horizontalStack=0;resizeParent=1;resizeParentMax=0;resizeLast=0;collapsible=1;marginBottom=0;" parent="1" vertex="1">
                    <mxGeometry x="30" y="240" width="120" height="80" as="geometry"/>
                </mxCell>
                <mxCell id="categories_attrs" value="+ ID (PK)&#10;+ name: VARCHAR&#10;+ description: TEXT" style="text;strokeColor=none;fillColor=none;align=left;verticalAlign=top;spacingLeft=4;spacingRight=4;overflow=hidden;rotatable=0;" parent="categories" vertex="1">
                    <mxGeometry y="26" width="120" height="54" as="geometry"/>
                </mxCell>
                <mxCell id="payment_methods" value="Payment_Methods" style="swimlane;fontStyle=1;align=center;verticalAlign=top;childLayout=stackLayout;horizontal=1;startSize=26;horizontalStack=0;resizeParent=1;resizeParentMax=0;resizeLast=0;collapsible=1;marginBottom=0;" parent="1" vertex="1">
                    <mxGeometry x="737.5" y="580" width="170" height="81" as="geometry"/>
                </mxCell>
                <mxCell id="payment_methods_attrs" value="+ ID (PK)&#10;+ method_name: VARCHAR&#10;+ details: TEXT" style="text;strokeColor=none;fillColor=none;align=left;verticalAlign=top;spacingLeft=4;spacingRight=4;overflow=hidden;rotatable=0;" parent="payment_methods" vertex="1">
                    <mxGeometry y="26" width="170" height="55" as="geometry"/>
                </mxCell>
                <mxCell id="shipping" value="Shipping" style="swimlane;fontStyle=1;align=center;verticalAlign=top;childLayout=stackLayout;horizontal=1;startSize=26;horizontalStack=0;resizeParent=1;resizeParentMax=0;resizeLast=0;collapsible=1;marginBottom=0;" parent="1" vertex="1">
                    <mxGeometry x="520" y="600" width="180" height="126" as="geometry"/>
                </mxCell>
                <mxCell id="shipping_attrs" value="+ ID (PK)&#10;+ order_id (FK)&#10;+ shipping_method: VARCHAR&#10;+ shipping_address: TEXT&#10;+ shipping_date: TIMESTAMP&#10;+ tracking_number: VARCHAR" style="text;strokeColor=none;fillColor=none;align=left;verticalAlign=top;spacingLeft=4;spacingRight=4;overflow=hidden;rotatable=0;" parent="shipping" vertex="1">
                    <mxGeometry y="26" width="180" height="100" as="geometry"/>
                </mxCell>
                <mxCell id="products" value="Products" style="swimlane;fontStyle=1;align=center;verticalAlign=top;childLayout=stackLayout;horizontal=1;startSize=26;horizontalStack=0;resizeParent=1;resizeParentMax=0;resizeLast=0;collapsible=1;marginBottom=0;" parent="1" vertex="1">
                    <mxGeometry x="260" y="180" width="200" height="176" as="geometry"/>
                </mxCell>
                <mxCell id="products_attrs" value="+ ID (PK)&#10;+ name: VARCHAR&#10;+ description: TEXT&#10;+ price: DECIMAL&#10;+ stock: INT&#10;+ image_url: VARCHAR&#10;+ brand_id (FK)&#10;+ category_id (FK)&#10;+ created_at: TIMESTAMP&#10;+ updated_at: TIMESTAMP" style="text;strokeColor=none;fillColor=none;align=left;verticalAlign=top;spacingLeft=4;spacingRight=4;overflow=hidden;rotatable=0;" parent="products" vertex="1">
                    <mxGeometry y="26" width="200" height="150" as="geometry"/>
                </mxCell>
                <mxCell id="promotions" value="Promotions" style="swimlane;fontStyle=1;align=center;verticalAlign=top;childLayout=stackLayout;horizontal=1;startSize=26;horizontalStack=0;resizeParent=1;resizeParentMax=0;resizeLast=0;collapsible=1;marginBottom=0;" parent="1" vertex="1">
                    <mxGeometry x="250" y="410" width="220" height="126" as="geometry"/>
                </mxCell>
                <mxCell id="promotions_attrs" value="+ ID (PK)&#10;+ promo_code: VARCHAR&#10;+ description: TEXT&#10;+ discount_percentage: DECIMAL(3,2)&#10;+ start_date: DATE&#10;+ end_date: DATE" style="text;strokeColor=none;fillColor=none;align=left;verticalAlign=top;spacingLeft=4;spacingRight=4;overflow=hidden;rotatable=0;" parent="promotions" vertex="1">
                    <mxGeometry y="26" width="220" height="100" as="geometry"/>
                </mxCell>
                <mxCell id="customers" value="Customers" style="swimlane;fontStyle=1;align=center;verticalAlign=top;childLayout=stackLayout;horizontal=1;startSize=26;horizontalStack=0;resizeParent=1;resizeParentMax=0;resizeLast=0;collapsible=1;marginBottom=0;" parent="1" vertex="1">
                    <mxGeometry x="530" y="250" width="160" height="135" as="geometry"/>
                </mxCell>
                <mxCell id="customers_attrs" value="+ ID (PK)&#10;+ name: VARCHAR&#10;+ email: VARCHAR&#10;+ phone: VARCHAR&#10;+ address: TEXT&#10;+ password: VARCHAR&#10;+ created_at: TIMESTAMP" style="text;strokeColor=none;fillColor=none;align=left;verticalAlign=top;spacingLeft=4;spacingRight=4;overflow=hidden;rotatable=0;" parent="customers" vertex="1">
                    <mxGeometry y="26" width="160" height="109" as="geometry"/>
                </mxCell>
                <mxCell id="wishlist" value="Wishlist" style="swimlane;fontStyle=1;align=center;verticalAlign=top;childLayout=stackLayout;horizontal=1;startSize=26;horizontalStack=0;resizeParent=1;resizeParentMax=0;resizeLast=0;collapsible=1;marginBottom=0;" parent="1" vertex="1">
                    <mxGeometry x="530" y="120" width="160" height="96" as="geometry"/>
                </mxCell>
                <mxCell id="wishlist_attrs" value="+ ID (PK)&#10;+ customer_id (FK)&#10;+ product_id (FK)&#10;+ created_at: TIMESTAMP" style="text;strokeColor=none;fillColor=none;align=left;verticalAlign=top;spacingLeft=4;spacingRight=4;overflow=hidden;rotatable=0;" parent="wishlist" vertex="1">
                    <mxGeometry y="26" width="160" height="70" as="geometry"/>
                </mxCell>
                <mxCell id="cart" value="Cart" style="swimlane;fontStyle=1;align=center;verticalAlign=top;childLayout=stackLayout;horizontal=1;startSize=26;horizontalStack=0;resizeParent=1;resizeParentMax=0;resizeLast=0;collapsible=1;marginBottom=0;" parent="1" vertex="1">
                    <mxGeometry x="50" y="580" width="165" height="86" as="geometry"/>
                </mxCell>
                <mxCell id="cart_attrs" value="+ ID (PK)&#10;+ customer_id (FK)&#10;+ created_at: TIMESTAMP" style="text;strokeColor=none;fillColor=none;align=left;verticalAlign=top;spacingLeft=4;spacingRight=4;overflow=hidden;rotatable=0;" parent="cart" vertex="1">
                    <mxGeometry y="26" width="165" height="60" as="geometry"/>
                </mxCell>
                <mxCell id="orders" value="Orders" style="swimlane;fontStyle=1;align=center;verticalAlign=top;childLayout=stackLayout;horizontal=1;startSize=26;horizontalStack=0;resizeParent=1;resizeParentMax=0;resizeLast=0;collapsible=1;marginBottom=0;" parent="1" vertex="1">
                    <mxGeometry x="527.5" y="410" width="165" height="126" as="geometry"/>
                </mxCell>
                <mxCell id="orders_attrs" value="+ ID (PK)&#10;+ customer_id (FK)&#10;+ payment_method_id (FK)&#10;+ total_amount: DECIMAL&#10;+ order_date: TIMESTAMP&#10;+ status_id (FK)" style="text;strokeColor=none;fillColor=none;align=left;verticalAlign=top;spacingLeft=4;spacingRight=4;overflow=hidden;rotatable=0;" parent="orders" vertex="1">
                    <mxGeometry y="26" width="165" height="100" as="geometry"/>
                </mxCell>
                <mxCell id="order_status_rel" value="" style="endArrow=ERmany;startArrow=ERone;html=1;rounded=0;exitX=0;exitY=0.25;exitDx=0;exitDy=0;entryX=1.001;entryY=0.376;entryDx=0;entryDy=0;entryPerimeter=0;" parent="1" source="order_status_attrs" target="orders_attrs" edge="1">
                    <mxGeometry relative="1" as="geometry">
                        <mxPoint x="750" y="507" as="sourcePoint"/>
                    </mxGeometry>
                </mxCell>
                <mxCell id="order_details" value="Order_Details" style="swimlane;fontStyle=1;align=center;verticalAlign=top;childLayout=stackLayout;horizontal=1;startSize=26;horizontalStack=0;resizeParent=1;resizeParentMax=0;resizeLast=0;collapsible=1;marginBottom=0;" parent="1" vertex="1">
                    <mxGeometry x="295" y="600" width="130" height="126" as="geometry"/>
                </mxCell>
                <mxCell id="order_details_attrs" value="+ ID (PK)&#10;+ order_id (FK)&#10;+ product_id (FK)&#10;+ promo_code_id (FK)&#10;+ quantity: INT&#10;+ price: DECIMAL" style="text;strokeColor=none;fillColor=none;align=left;verticalAlign=top;spacingLeft=4;spacingRight=4;overflow=hidden;rotatable=0;" parent="order_details" vertex="1">
                    <mxGeometry y="26" width="130" height="100" as="geometry"/>
                </mxCell>
                <mxCell id="promo_order_rel" value="" style="endArrow=ERmany;startArrow=ERone;html=1;rounded=0;entryX=0.5;entryY=0;entryDx=0;entryDy=0;" parent="1" source="promotions_attrs" target="order_details" edge="1">
                    <mxGeometry relative="1" as="geometry"/>
                </mxCell>
                <mxCell id="reviews" value="Reviews" style="swimlane;fontStyle=1;align=center;verticalAlign=top;childLayout=stackLayout;horizontal=1;startSize=26;horizontalStack=0;resizeParent=1;resizeParentMax=0;resizeLast=0;collapsible=1;marginBottom=0;" parent="1" vertex="1">
                    <mxGeometry x="272.5" y="20" width="175" height="126" as="geometry"/>
                </mxCell>
                <mxCell id="reviews_attrs" value="+ ID (PK)&#10;+ product_id (FK)&#10;+ customer_id (FK)&#10;+ content: TEXT&#10;+ rating: INT {1..5}&#10;+ review_date: TIMESTAMP" style="text;strokeColor=none;fillColor=none;align=left;verticalAlign=top;spacingLeft=4;spacingRight=4;overflow=hidden;rotatable=0;" parent="reviews" vertex="1">
                    <mxGeometry y="26" width="175" height="100" as="geometry"/>
                </mxCell>
                <mxCell id="admin_role_rel" value="" style="endArrow=ERmany;startArrow=ERone;html=1;rounded=0;entryX=0.5;entryY=0;entryDx=0;entryDy=0;exitX=0.5;exitY=1;exitDx=0;exitDy=0;" parent="1" source="roles_attrs" target="admins" edge="1">
                    <mxGeometry relative="1" as="geometry">
                        <mxPoint x="270" y="970" as="sourcePoint"/>
                    </mxGeometry>
                </mxCell>
                <mxCell id="admins" value="Admins" style="swimlane;fontStyle=1;align=center;verticalAlign=top;childLayout=stackLayout;horizontal=1;startSize=26;horizontalStack=0;resizeParent=1;resizeParentMax=0;resizeLast=0;collapsible=1;marginBottom=0;" parent="1" vertex="1">
                    <mxGeometry x="752.5" y="269" width="140" height="116" as="geometry"/>
                </mxCell>
                <mxCell id="admins_attrs" value="+ ID (PK)&#10;+ name: VARCHAR&#10;+ email: VARCHAR&#10;+ password: VARCHAR&#10;+ role_id (FK)" style="text;strokeColor=none;fillColor=none;align=left;verticalAlign=top;spacingLeft=4;spacingRight=4;overflow=hidden;rotatable=0;" parent="admins" vertex="1">
                    <mxGeometry y="26" width="140" height="90" as="geometry"/>
                </mxCell>
                <mxCell id="brand_product_rel" value="" style="endArrow=ERmany;startArrow=ERone;html=1;rounded=0;entryX=0;entryY=0;entryDx=0;entryDy=0;exitX=1;exitY=0.5;exitDx=0;exitDy=0;" parent="1" source="brands_attrs" target="products" edge="1">
                    <mxGeometry relative="1" as="geometry"/>
                </mxCell>
                <mxCell id="category_product_rel" value="" style="endArrow=ERmany;startArrow=ERone;html=1;rounded=0;entryX=0;entryY=0.5;entryDx=0;entryDy=0;exitX=1;exitY=0.25;exitDx=0;exitDy=0;" parent="1" source="categories_attrs" target="products_attrs" edge="1">
                    <mxGeometry relative="1" as="geometry"/>
                </mxCell>
                <mxCell id="promotion_product_rel" value="" style="endArrow=ERmany;startArrow=ERone;html=1;rounded=0;entryX=0.5;entryY=1;entryDx=0;entryDy=0;exitX=0.5;exitY=0;exitDx=0;exitDy=0;" parent="1" source="promotions" target="products_attrs" edge="1">
                    <mxGeometry relative="1" as="geometry">
                        <mxPoint x="420" y="460" as="sourcePoint"/>
                    </mxGeometry>
                </mxCell>
                <mxCell id="customer_order_rel" value="" style="endArrow=ERmany;startArrow=ERone;html=1;rounded=0;entryX=0.5;entryY=0;entryDx=0;entryDy=0;exitX=0.5;exitY=1;exitDx=0;exitDy=0;" parent="1" source="customers_attrs" target="orders" edge="1">
                    <mxGeometry relative="1" as="geometry"/>
                </mxCell>
                <mxCell id="order_details_rel" value="" style="endArrow=ERmany;startArrow=ERone;html=1;rounded=0;exitX=0;exitY=1;exitDx=0;exitDy=0;entryX=1;entryY=0;entryDx=0;entryDy=0;" parent="1" source="orders_attrs" target="order_details" edge="1">
                    <mxGeometry relative="1" as="geometry"/>
                </mxCell>
                <mxCell id="product_review_rel" value="" style="endArrow=ERmany;startArrow=ERone;html=1;rounded=0;entryX=0.5;entryY=1;entryDx=0;entryDy=0;" parent="1" source="products" target="reviews_attrs" edge="1">
                    <mxGeometry relative="1" as="geometry">
                        <mxPoint x="674.3076923076924" y="880" as="targetPoint"/>
                    </mxGeometry>
                </mxCell>
                <mxCell id="product_wishlist_rel" value="" style="endArrow=ERmany;startArrow=ERone;html=1;rounded=0;exitX=1;exitY=0;exitDx=0;exitDy=0;entryX=0;entryY=0.5;entryDx=0;entryDy=0;" parent="1" source="products" target="wishlist_attrs" edge="1">
                    <mxGeometry relative="1" as="geometry"/>
                </mxCell>
                <mxCell id="customer_cart_rel" value="" style="endArrow=ERmany;startArrow=ERone;html=1;rounded=0;entryX=0.5;entryY=1;entryDx=0;entryDy=0;" parent="1" source="customers" target="wishlist_attrs" edge="1">
                    <mxGeometry relative="1" as="geometry">
                        <mxPoint x="710" y="386" as="targetPoint"/>
                    </mxGeometry>
                </mxCell>
                <mxCell id="product_cartitems_rel" value="" style="endArrow=ERmany;startArrow=ERone;html=1;rounded=0;entryX=0.5;entryY=0;entryDx=0;entryDy=0;exitX=0;exitY=1;exitDx=0;exitDy=0;" parent="1" source="products_attrs" target="cart_items" edge="1">
                    <mxGeometry relative="1" as="geometry">
                        <mxPoint x="260" y="319" as="sourcePoint"/>
                    </mxGeometry>
                </mxCell>
                <mxCell id="order_payment_rel" value="" style="endArrow=ERmany;startArrow=ERone;html=1;rounded=0;entryX=1;entryY=1;entryDx=0;entryDy=0;exitX=0;exitY=0;exitDx=0;exitDy=0;" parent="1" source="payment_methods" target="orders_attrs" edge="1">
                    <mxGeometry relative="1" as="geometry">
                        <mxPoint x="665" y="536" as="targetPoint"/>
                    </mxGeometry>
                </mxCell>
                <mxCell id="order_shipping_rel" value="" style="endArrow=ERone;startArrow=ERone;html=1;rounded=0;" parent="1" source="orders" target="shipping" edge="1">
                    <mxGeometry relative="1" as="geometry"/>
                </mxCell>
                <mxCell id="cart_items" value="Cart_Items" style="swimlane;fontStyle=1;align=center;verticalAlign=top;childLayout=stackLayout;horizontal=1;startSize=26;horizontalStack=0;resizeParent=1;resizeParentMax=0;resizeLast=0;collapsible=1;marginBottom=0;" parent="1" vertex="1">
                    <mxGeometry x="25" y="390" width="140" height="126" as="geometry"/>
                </mxCell>
                <mxCell id="cart_items_attrs" value="+ ID (PK)&#10;+ cart_id (FK)&#10;+ product_id (FK)&#10;+ quantity: INT&#10;+ price: DECIMAL&#10;+ subtotal: DECIMAL" style="text;strokeColor=none;fillColor=none;align=left;verticalAlign=top;spacingLeft=4;spacingRight=4;overflow=hidden;rotatable=0;" parent="cart_items" vertex="1">
                    <mxGeometry y="26" width="140" height="100" as="geometry"/>
                </mxCell>
                <mxCell id="order_status" value="Order_Status" style="swimlane;fontStyle=1;align=center;verticalAlign=top;childLayout=stackLayout;horizontal=1;startSize=26;horizontalStack=0;resizeParent=1;resizeParentMax=0;resizeLast=0;collapsible=1;marginBottom=0;" parent="1" vertex="1">
                    <mxGeometry x="740" y="435" width="165" height="81" as="geometry"/>
                </mxCell>
                <mxCell id="order_status_attrs" value="+ ID (PK)&#10;+ status_name: VARCHAR&#10;+ description: TEXT" style="text;strokeColor=none;fillColor=none;align=left;verticalAlign=top;spacingLeft=4;spacingRight=4;overflow=hidden;rotatable=0;" parent="order_status" vertex="1">
                    <mxGeometry y="26" width="165" height="55" as="geometry"/>
                </mxCell>
                <mxCell id="roles" value="Roles" style="swimlane;fontStyle=1;align=center;verticalAlign=top;childLayout=stackLayout;horizontal=1;startSize=26;horizontalStack=0;resizeParent=1;resizeParentMax=0;resizeLast=0;collapsible=1;marginBottom=0;" parent="1" vertex="1">
                    <mxGeometry x="742.5" y="125" width="160" height="86" as="geometry"/>
                </mxCell>
                <mxCell id="roles_attrs" value="+ ID (PK)&#10;+ role_name: VARCHAR&#10;+ permissions: TEXT" style="text;strokeColor=none;fillColor=none;align=left;verticalAlign=top;spacingLeft=4;spacingRight=4;overflow=hidden;rotatable=0;" parent="roles" vertex="1">
                    <mxGeometry y="26" width="160" height="60" as="geometry"/>
                </mxCell>
                <mxCell id="5" value="" style="endArrow=ERmany;startArrow=ERone;html=1;rounded=0;entryX=1;entryY=0.5;entryDx=0;entryDy=0;exitX=0;exitY=0.5;exitDx=0;exitDy=0;" parent="1" source="orders_attrs" target="promotions_attrs" edge="1">
                    <mxGeometry relative="1" as="geometry">
                        <mxPoint x="550" y="520" as="sourcePoint"/>
                        <mxPoint x="430.8636363636365" y="736" as="targetPoint"/>
                    </mxGeometry>
                </mxCell>
            </root>
        </mxGraphModel>
    </diagram>
</mxfile>